HIERARCHY
ROOT Hips
{
	OFFSET 0.000000 0.000000 0.000000
	CHANNELS 6 Xposition Yposition Zposition Xrotation Yrotation Zrotation
	JOINT LeftUpLeg_virtual
	{
		OFFSET 0.000000 0.000000 0.000000
		CHANNELS 3 Xrotation Yrotation Zrotation
		JOINT LeftUpLeg
		{
			OFFSET 11.394100 -6.187798 -0.413800
			CHANNELS 3 Xrotation Yrotation Zrotation
			JOINT LeftLeg
			{
				OFFSET 0.430247 -32.302673 3.732800
				CHANNELS 3 Xrotation Yrotation Zrotation
				JOINT LeftFoot
				{
					OFFSET -0.430247 -48.264931 -6.423300
					CHANNELS 3 Xrotation Yrotation Zrotation
					JOINT LeftToeBase
					{
						OFFSET 4.230900 -16.068199 23.438400
						CHANNELS 3 Xrotation Yrotation Zrotation
						JOINT LeftToe_End
						{
							OFFSET 4.510700 0.695400 19.974600
							CHANNELS 3 Xrotation Yrotation Zrotation
							End Site
							{
								OFFSET 0 0 0
							}
						}
					}
				}
			}
		}
	}
	JOINT RightUpLeg_virtual
	{
		OFFSET 0.000000 0.000000 0.000000
		CHANNELS 3 Xrotation Yrotation Zrotation
		JOINT RightUpLeg
		{
			OFFSET -11.333700 -6.187798 -0.413800
			CHANNELS 3 Xrotation Yrotation Zrotation
			JOINT RightLeg
			{
				OFFSET -0.430392 -32.302628 3.733000
				CHANNELS 3 Xrotation Yrotation Zrotation
				JOINT RightFoot
				{
					OFFSET 0.430392 -48.264973 -6.423500
					CHANNELS 3 Xrotation Yrotation Zrotation
					JOINT RightToeBase
					{
						OFFSET -4.230900 -16.068199 23.438400
						CHANNELS 3 Xrotation Yrotation Zrotation
						JOINT RightToe_End
						{
							OFFSET -4.510700 0.695400 19.974600
							CHANNELS 3 Xrotation Yrotation Zrotation
							End Site
							{
								OFFSET 0 0 0
							}
						}
					}
				}
			}
		}
	}
	JOINT Spine_virtual
	{
		OFFSET 0.000000 0.000000 0.000000
		CHANNELS 3 Xrotation Yrotation Zrotation
		JOINT Spine
		{
			OFFSET -0.002400 12.777504 0.315300
			CHANNELS 3 Xrotation Yrotation Zrotation
			JOINT Spine1
			{
				OFFSET -0.002067 5.816869 0.032633
				CHANNELS 3 Xrotation Yrotation Zrotation
				JOINT Spine1_split
				{
					OFFSET -0.002067 5.816869 0.032633
					CHANNELS 3 Xrotation Yrotation Zrotation
					JOINT Spine2
					{
						OFFSET -0.002067 5.816869 0.032633
						CHANNELS 3 Xrotation Yrotation Zrotation
						JOINT Neck_virtual
						{
							OFFSET 0.000000 0.000000 0.000000
							CHANNELS 3 Xrotation Yrotation Zrotation
							JOINT Neck
							{
								OFFSET -0.003700 21.199493 -0.826900
								CHANNELS 3 Xrotation Yrotation Zrotation
								JOINT Head
								{
									OFFSET 0.000000 20.442200 4.834800
									CHANNELS 3 Xrotation Yrotation Zrotation
									JOINT HeadTop_End
									{
										OFFSET 0.000000 34.668396 4.968400
										CHANNELS 3 Xrotation Yrotation Zrotation
										End Site
										{
											OFFSET 0 0 0
										}
									}
								}
							}
						}
						JOINT LeftShoulder_virtual
						{
							OFFSET 0.000000 0.000000 0.000000
							CHANNELS 3 Xrotation Yrotation Zrotation
							JOINT LeftShoulder
							{
								OFFSET 3.288150 8.794197 -1.372250
								CHANNELS 3 Xrotation Yrotation Zrotation
								JOINT LeftShoulder_split
								{
									OFFSET 3.288150 8.794197 -1.372250
									CHANNELS 3 Xrotation Yrotation Zrotation
									JOINT LeftArm
									{
										OFFSET 11.953299 -2.279007 -0.146200
										CHANNELS 3 Xrotation Yrotation Zrotation
										JOINT LeftForeArm
										{
											OFFSET 18.448900 0.000000 0.000000
											CHANNELS 3 Xrotation Yrotation Zrotation
											JOINT LeftHand
											{
												OFFSET 29.527798 0.000000 0.000000
												CHANNELS 3 Xrotation Yrotation Zrotation
												End Site
												{
													OFFSET 0 0 0
												}
											}
										}
									}
								}
							}
						}
						JOINT RightShoulder_virtual
						{
							OFFSET 0.000000 0.000000 0.000000
							CHANNELS 3 Xrotation Yrotation Zrotation
							JOINT RightShoulder
							{
								OFFSET -3.249400 8.794197 -1.372250
								CHANNELS 3 Xrotation Yrotation Zrotation
								JOINT RightShoulder_split
								{
									OFFSET -3.249400 8.794197 -1.372250
									CHANNELS 3 Xrotation Yrotation Zrotation
									JOINT RightArm
									{
										OFFSET -11.953299 -2.279007 -0.146200
										CHANNELS 3 Xrotation Yrotation Zrotation
										JOINT RightForeArm
										{
											OFFSET -18.448900 0.000000 0.000000
											CHANNELS 3 Xrotation Yrotation Zrotation
											JOINT RightHand
											{
												OFFSET -29.527802 0.000000 0.000000
												CHANNELS 3 Xrotation Yrotation Zrotation
												End Site
												{
													OFFSET 0 0 0
												}
											}
										}
									}
								}
							}
						}
					}
				}
			}
		}
	}
}
MOTION
Frames: 5
Frame Time: 0.03333333
-0.681690 81.146011 -5.721588 0.000000 0.000000 0.000000 12.296658 3.699102 -3.655859 10.507824 1.931977 10.579575 35.704670 -4.268995 12.499072 -19.106211 2.504777 -6.931390 -27.746166 -0.280189 -6.156282 0.000000 0.000000 0.000000 14.162617 6.690172 -4.419551 -75.053793 1.448523 -1.873971 66.075202 -7.416508 -0.591489 5.856784 3.014048 -11.416934 -3.202123 0.986045 -1.002667 0.000000 0.000000 0.000000 12.742977 2.119257 -3.732209 0.154799 -3.714332 4.342591 2.607780 -2.430830 2.581823 0.930809 -1.615665 -0.131950 0.000000 0.000000 0.000000 2.895871 -2.672391 2.890535 -5.132300 1.674348 -1.406439 -17.007072 -9.344588 7.278622 0.000000 0.000000 0.000000 3.386868 -2.880070 1.947623 -0.416480 2.297761 -2.769604 -3.100242 2.805367 -2.948696 -16.893131 5.861328 -60.429621 -174.272987 -73.564634 -172.004121 0.000000 0.000000 0.000000 4.871610 -1.965134 2.814249 0.576622 -8.838876 15.906857 -0.794974 5.694562 0.716669 -27.484007 8.286902 54.850411 -173.790489 55.378081 173.203530 0.000000 0.000000 0.000000 
-1.398676 82.924866 -5.762207 0.000000 0.000000 0.000000 12.522183 3.845083 -3.399457 8.822146 0.880550 9.827701 35.967428 -2.489613 11.804356 -13.096351 2.994544 -6.322403 -24.073328 0.844302 -9.121540 0.000000 0.000000 0.000000 13.780766 5.585598 -4.101589 -74.372933 0.934109 -3.294480 66.005664 -7.087523 -0.303730 6.607297 3.170987 -11.048687 -2.282942 1.060799 -0.630619 0.000000 0.000000 0.000000 12.878971 2.049391 -3.584118 0.245195 -3.558588 4.627453 2.569614 -2.432815 2.326177 0.449260 -0.586000 -0.853636 0.000000 0.000000 0.000000 3.027768 -2.574582 2.556672 -4.799027 1.861665 -1.810398 -16.297895 -9.137123 7.593821 0.000000 0.000000 0.000000 3.533486 -2.830505 1.795777 -0.368852 1.116861 -1.882955 -2.980061 1.489616 -1.769984 -21.102011 4.559821 -60.112290 -173.751202 -74.442594 -171.458102 0.000000 0.000000 0.000000 4.993472 -1.883573 2.555785 0.540186 -8.214954 15.506348 -2.078235 5.914429 -0.191884 -31.252709 10.241626 54.559111 -174.698467 53.918804 173.994875 0.000000 0.000000 0.000000 
-1.739067 86.692131 -5.522598 0.000000 0.000000 0.000000 12.103366 4.603978 -3.432072 3.737621 1.665728 9.497384 37.671270 -0.141169 9.957250 -0.929024 3.012933 -4.727246 -12.451974 0.899539 -12.639674 0.000000 0.000000 0.000000 13.021330 4.440265 -3.906540 -71.266289 1.318249 -3.897125 61.203085 -6.134679 -0.533764 9.254514 3.129158 -10.369922 -2.234915 0.974669 -0.027998 0.000000 0.000000 0.000000 12.608390 2.189625 -3.251752 0.931392 -2.781836 5.037422 2.544991 -2.207727 1.703235 0.267653 0.459200 -1.059392 0.000000 0.000000 0.000000 3.029394 -2.274777 1.813331 -4.114987 1.901628 -2.142062 -14.822135 -8.991833 7.995729 0.000000 0.000000 0.000000 3.655028 -2.494984 1.353124 -0.271639 -0.889957 -1.005121 -2.279496 0.924592 -1.037799 -28.002182 1.281253 -58.912424 -172.011607 -77.062525 -169.807928 0.000000 0.000000 0.000000 5.056484 -1.661737 1.920994 0.567159 -7.488068 14.280613 -2.303422 4.760182 -0.318702 -38.502138 13.693754 54.295011 -174.947236 55.157879 174.265064 0.000000 0.000000 0.000000 
-1.489089 91.603622 -4.947201 0.000000 0.000000 0.000000 11.271023 5.179915 -3.664356 -3.556336 3.410053 9.563820 41.310702 2.160055 7.792866 13.667857 2.765105 -2.697989 0.604934 -0.216341 -14.894257 0.000000 0.000000 0.000000 11.954220 3.877545 -3.904347 -65.543021 2.338972 -3.560927 52.617281 -5.005091 -0.786616 13.553761 2.843184 -9.658465 -4.735556 0.674464 0.557762 0.000000 0.000000 0.000000 11.806200 2.598286 -2.812401 2.096663 -1.639793 5.357847 2.674928 -1.823815 0.985725 0.116253 1.275071 -0.587478 0.000000 0.000000 0.000000 3.043195 -1.812682 1.025764 -3.232262 1.888603 -2.439842 -12.974696 -8.838078 8.433191 0.000000 0.000000 0.000000 3.815644 -1.972616 0.880974 -0.128288 -3.389602 -0.137060 -1.689386 1.219610 -0.800894 -36.539852 -3.369190 -57.801842 -167.809606 -81.313477 -165.844602 0.000000 0.000000 0.000000 5.132744 -1.353426 1.184456 0.593275 -6.849242 12.189927 -1.817862 2.850508 -0.194737 -47.721620 17.534250 54.742962 -174.654166 59.157703 174.165207 0.000000 0.000000 0.000000 
-1.046872 96.753586 -3.643772 0.000000 0.000000 0.000000 9.889206 5.270365 -3.689631 -12.020867 5.263395 9.447741 47.124347 4.350737 5.956841 25.061458 2.175015 0.177854 8.748268 -1.251921 -14.542929 0.000000 0.000000 0.000000 10.479990 4.139137 -3.944478 -58.163466 3.394206 -2.763119 42.345032 -4.015169 -0.750300 18.644680 2.696279 -8.538770 -9.886105 0.179568 0.781325 0.000000 0.000000 0.000000 10.578084 3.374122 -2.392330 3.642064 -0.457908 5.340388 3.047423 -1.395976 0.457156 0.319750 1.502497 0.136526 0.000000 0.000000 0.000000 3.206188 -1.315673 0.515803 -2.291937 1.833069 -2.729181 -11.040475 -8.634256 8.900749 0.000000 0.000000 0.000000 4.113029 -1.405805 0.645619 0.031210 -5.901782 1.027776 -1.468074 1.805868 -1.033847 -46.098354 -8.695066 -57.594894 -150.540074 -86.457573 -148.875803 0.000000 0.000000 0.000000 5.250324 -1.062207 0.666938 0.569882 -6.419439 9.065484 -1.216082 1.177635 -0.245537 -57.725931 20.584684 56.096289 -173.635553 65.812916 173.486013 0.000000 0.000000 0.000000 
